<svg width="26" height="27" viewBox="0 0 26 27" fill="none" xmlns="http://www.w3.org/2000/svg">
<path d="M2.58149 15.443C2.09829 12.0159 1.85669 10.3023 2.88353 9.19313C3.91036 8.08398 5.73839 8.08398 9.39444 8.08398H16.6043C20.2603 8.08398 22.0883 8.08398 23.1152 9.19313C24.142 10.3023 23.9004 12.0159 23.4172 15.443L22.959 18.6931C22.5801 21.3807 22.3906 22.7245 21.4187 23.5292C20.4467 24.334 19.0131 24.334 16.146 24.334H9.85266C6.98556 24.334 5.552 24.334 4.58005 23.5292C3.60809 22.7245 3.41863 21.3807 3.0397 18.693L2.58149 15.443Z" stroke="currentColor" stroke-width="1.625"/>
<path d="M21.1929 8.08333C21.4406 6.66983 20.3529 5.375 18.9179 5.375H7.08376C5.64872 5.375 4.56105 6.66983 4.80872 8.08333" stroke="currentColor" stroke-width="1.625"/>
<path d="M18.9592 5.37435C18.99 5.09368 19.0054 4.95331 19.0056 4.83739C19.008 3.72846 18.1727 2.79671 17.0701 2.67839C16.9549 2.66602 16.8137 2.66602 16.5313 2.66602H9.47038C9.18802 2.66602 9.04683 2.66602 8.93157 2.67839C7.82897 2.79671 6.99369 3.72846 6.9961 4.83739C6.99635 4.95332 7.01172 5.09366 7.04246 5.37435" stroke="currentColor" stroke-width="1.625"/>
<circle cx="17.875" cy="12.959" r="1.625" stroke="currentColor" stroke-width="1.625"/>
<path d="M21.6668 22.166L18.5422 19.8384C17.5346 19.0878 16.034 19.013 14.9249 19.6582L14.6359 19.8263C13.8651 20.2747 12.8166 20.1995 12.1504 19.6481L7.9924 16.2065C7.16248 15.5196 5.83123 15.4829 4.94794 16.1226L3.51367 17.1613" stroke="currentColor" stroke-width="1.625" stroke-linecap="round"/>
</svg>
