<svg width="26" height="27" viewBox="0 0 26 27" fill="none" xmlns="http://www.w3.org/2000/svg">
<path d="M2.16602 15.6667C2.16602 11.5812 2.16602 9.53841 3.43522 8.2692C4.70442 7 6.74718 7 10.8327 7H15.166C19.2515 7 21.2943 7 22.5635 8.2692C23.8327 9.53841 23.8327 11.5812 23.8327 15.6667C23.8327 19.7522 23.8327 21.7949 22.5635 23.0641C21.2943 24.3333 19.2515 24.3333 15.166 24.3333H10.8327C6.74718 24.3333 4.70442 24.3333 3.43522 23.0641C2.16602 21.7949 2.16602 19.7522 2.16602 15.6667Z" stroke="currentColor" stroke-width="1.875"/>
<path d="M17.3346 6.99935C17.3346 4.9566 17.3346 3.93522 16.7 3.30062C16.0654 2.66602 15.0441 2.66602 13.0013 2.66602C10.9585 2.66602 9.93717 2.66602 9.30257 3.30062C8.66797 3.93522 8.66797 4.9566 8.66797 6.99935" stroke="currentColor" stroke-width="1.875"/>
<path d="M18.4167 10.2493C18.4167 10.8477 17.9316 11.3327 17.3333 11.3327C16.735 11.3327 16.25 10.8477 16.25 10.2493C16.25 9.65104 16.735 9.16602 17.3333 9.16602C17.9316 9.16602 18.4167 9.65104 18.4167 10.2493Z" fill="#424242"/>
<path d="M9.7487 10.2493C9.7487 10.8477 9.26367 11.3327 8.66536 11.3327C8.06706 11.3327 7.58203 10.8477 7.58203 10.2493C7.58203 9.65104 8.06706 9.16602 8.66536 9.16602C9.26367 9.16602 9.7487 9.65104 9.7487 10.2493Z" fill="#424242"/>
</svg>
