<svg width="24" height="24" viewBox="0 0 24 24" fill="none" xmlns="http://www.w3.org/2000/svg">
<path d="M3.74034 20.5545C4.93997 22 7.17267 22 11.6381 22H12.3593C16.8247 22 19.0574 22 20.257 20.5545M3.74034 20.5545C2.54072 19.1091 2.95218 16.9146 3.77511 12.5257C4.36033 9.40452 4.65294 7.84393 5.76384 6.92196M3.74034 20.5545C3.74034 20.5545 3.74035 20.5545 3.74034 20.5545ZM20.257 20.5545C21.4566 19.1091 21.0452 16.9146 20.2222 12.5257C19.637 9.40452 19.3444 7.84393 18.2335 6.92196M20.257 20.5545C20.257 20.5545 20.257 20.5545 20.257 20.5545ZM18.2335 6.92196C17.1226 6 15.5348 6 12.3593 6H11.6381C8.46252 6 6.87474 6 5.76384 6.92196M18.2335 6.92196C18.2335 6.92196 18.2335 6.92196 18.2335 6.92196ZM5.76384 6.92196C5.76384 6.92196 5.76384 6.92196 5.76384 6.92196Z" stroke="currentColor" stroke-width="1.875"/>
<path d="M12 12.1913L11.3516 12.8685C11.7142 13.2156 12.2858 13.2156 12.6484 12.8685L12 12.1913ZM10.8136 15.693L11.387 14.9513C10.9958 14.6488 10.6053 14.3006 10.321 13.9496C10.0193 13.5771 9.9375 13.3248 9.9375 13.1967H9H8.0625C8.0625 13.9694 8.46829 14.6412 8.86387 15.1296C9.27681 15.6395 9.79313 16.0891 10.2403 16.4347L10.8136 15.693ZM9 13.1967H9.9375C9.9375 12.6858 10.1626 12.5161 10.3039 12.4666C10.4715 12.4078 10.8634 12.4011 11.3516 12.8685L12 12.1913L12.6484 11.5142C11.7866 10.6891 10.6786 10.3484 9.68363 10.6972C8.66244 11.0551 8.0625 12.0344 8.0625 13.1967H9ZM13.1864 15.693L13.7597 16.4347C14.2069 16.0891 14.7232 15.6395 15.1361 15.1296C15.5317 14.6412 15.9375 13.9694 15.9375 13.1967H15H14.0625C14.0625 13.3249 13.9807 13.5771 13.679 13.9496C13.3947 14.3006 13.0042 14.6488 12.613 14.9513L13.1864 15.693ZM15 13.1967H15.9375C15.9375 12.0344 15.3376 11.0551 14.3164 10.6972C13.3214 10.3484 12.2134 10.6891 11.3516 11.5142L12 12.1913L12.6484 12.8685C13.1366 12.4011 13.5285 12.4078 13.6961 12.4666C13.8374 12.5161 14.0625 12.6858 14.0625 13.1967H15ZM10.8136 15.693L10.2403 16.4347C10.6914 16.7834 11.1986 17.2176 12 17.2176L12 16.2801L12 15.3426C11.9579 15.3426 11.9407 15.3403 11.8845 15.3097C11.7853 15.2558 11.6616 15.1635 11.387 14.9513L10.8136 15.693ZM13.1864 15.693L12.613 14.9513C12.3384 15.1635 12.2147 15.2558 12.1155 15.3097C12.0593 15.3403 12.0421 15.3426 12 15.3426L12 16.2801L12 17.2176C12.8014 17.2176 13.3086 16.7834 13.7597 16.4347L13.1864 15.693Z" fill="currentColor"/>
<path d="M9 6V5C9 3.34315 10.3431 2 12 2C13.6569 2 15 3.34315 15 5V6" stroke="currentColor" stroke-width="1.875" stroke-linecap="round"/>
</svg>
