<svg width="20" height="20" viewBox="0 0 20 20" fill="none" xmlns="http://www.w3.org/2000/svg">
<path d="M15.6243 8.09066V7.50349C15.6243 4.27954 13.1062 1.66602 10 1.66602C6.8938 1.66602 4.37573 4.27954 4.37573 7.50349V8.09066C4.37573 8.79531 4.17476 9.4842 3.79817 10.0705L2.8753 11.5073C2.03235 12.8196 2.67587 14.6034 4.14197 15.0184C7.97728 16.1041 12.0227 16.1041 15.858 15.0184C17.3241 14.6034 17.9676 12.8196 17.1247 11.5073L16.2018 10.0705C15.8252 9.4842 15.6243 8.79531 15.6243 8.09066Z" stroke="#1C274C" stroke-width="1.25"/>
<path d="M6.25 15.834C6.79586 17.2905 8.26871 18.334 10 18.334C11.7313 18.334 13.2041 17.2905 13.75 15.834" stroke="#1C274C" stroke-width="1.25" stroke-linecap="round"/>
</svg>
