<svg width="16" height="16" viewBox="0 0 16 16" fill="none" xmlns="http://www.w3.org/2000/svg">
<path d="M5.33333 4.67446V2.00781M10.6667 4.67446V2.00781M4.66667 7.3411H11.3333M3.33333 14.0077H12.6667C13.0203 14.0077 13.3594 13.8672 13.6095 13.6172C13.8595 13.3671 14 13.028 14 12.6744V4.67446C14 4.32084 13.8595 3.9817 13.6095 3.73166C13.3594 3.48161 13.0203 3.34113 12.6667 3.34113H3.33333C2.97971 3.34113 2.64057 3.48161 2.39052 3.73166C2.14048 3.9817 2 4.32084 2 4.67446V12.6744C2 13.028 2.14048 13.3671 2.39052 13.6172C2.64057 13.8672 2.97971 14.0077 3.33333 14.0077Z" stroke="currentColor" stroke-width="1.5" stroke-linecap="round" stroke-linejoin="round"/>
</svg>
