<svg width="21" height="20" viewBox="0 0 21 20" fill="none" xmlns="http://www.w3.org/2000/svg">
<path fill-rule="evenodd" clip-rule="evenodd" d="M2.84027 6.96098C2.60682 9.13007 2.61723 11.6317 2.94208 13.792C3.12183 14.9873 4.09739 15.9036 5.30161 16.0084L6.56014 16.1177C9.18436 16.3459 11.8234 16.3459 14.4476 16.1177L15.7061 16.0084C16.9104 15.9036 17.8859 14.9873 18.0657 13.792C18.3905 11.6317 18.4009 9.13023 18.1674 6.96111C18.1373 6.70964 18.1034 6.45852 18.0657 6.20781C17.8859 5.01248 16.9104 4.09611 15.7061 3.99143L14.4476 3.88202C11.8234 3.65391 9.18436 3.65391 6.56014 3.88202L5.30161 3.99143C4.09739 4.09611 3.12183 5.01248 2.94208 6.20781C2.90439 6.45847 2.87045 6.70956 2.84027 6.96098ZM6.66839 5.12733C9.22053 4.90548 11.7872 4.90548 14.3394 5.12733L15.5979 5.23673C16.2264 5.29138 16.7357 5.76973 16.8295 6.39368C16.8393 6.45848 16.8488 6.52331 16.858 6.58817L12.2239 9.16273C11.1542 9.75698 9.85353 9.75698 8.78385 9.16273L4.14974 6.5882C4.15895 6.52333 4.16844 6.45849 4.17818 6.39368C4.27201 5.76973 4.78125 5.29138 5.40986 5.23673L6.66839 5.12733ZM17.0109 7.93314C17.1726 9.8229 17.1121 11.727 16.8295 13.6061C16.7357 14.2301 16.2264 14.7084 15.5979 14.7631L14.3394 14.8725C11.7872 15.0943 9.22053 15.0943 6.66839 14.8725L5.40986 14.7631C4.78125 14.7084 4.27201 14.2301 4.17818 13.6061C3.8956 11.727 3.83514 9.82298 3.99678 7.93317L8.17679 10.2554C9.62403 11.0594 11.3837 11.0594 12.8309 10.2554L17.0109 7.93314Z" fill="currentColor"/>
</svg>
