<svg width="26" height="27" viewBox="0 0 26 27" fill="none" xmlns="http://www.w3.org/2000/svg">
<path d="M11.4292 3.24554C11.8687 2.87506 12.4251 2.67188 13 2.67188C13.5749 2.67188 14.1313 2.87506 14.5708 3.24554L21.8833 9.41187C22.4326 9.87554 22.75 10.557 22.75 11.2752V21.361C22.75 21.8638 22.5503 22.3461 22.1947 22.7016C21.8392 23.0571 21.357 23.2569 20.8542 23.2569H17.0625C16.5597 23.2569 16.0775 23.0571 15.7219 22.7016C15.3664 22.3461 15.1667 21.8638 15.1667 21.361V15.9368C15.1667 15.865 15.1381 15.7961 15.0873 15.7453C15.0366 15.6945 14.9677 15.666 14.8958 15.666H11.1042C11.0323 15.666 10.9634 15.6945 10.9127 15.7453C10.8619 15.7961 10.8333 15.865 10.8333 15.9368V21.361C10.8333 21.8638 10.6336 22.3461 10.2781 22.7016C9.92252 23.0571 9.44031 23.2569 8.9375 23.2569H5.14583C4.89687 23.2569 4.65034 23.2078 4.42033 23.1126C4.19032 23.0173 3.98132 22.8776 3.80528 22.7016C3.62923 22.5255 3.48959 22.3166 3.39431 22.0865C3.29904 21.8565 3.25 21.61 3.25 21.361V11.2752C3.25 10.557 3.56742 9.87554 4.11667 9.41187L11.4292 3.24554ZM13.5233 4.48812C13.3768 4.36482 13.1915 4.2972 13 4.2972C12.8085 4.2972 12.6232 4.36482 12.4768 4.48812L5.16425 10.6534C5.07376 10.7295 5.00099 10.8246 4.95103 10.9318C4.90107 11.039 4.87512 11.1558 4.875 11.2741V21.36C4.875 21.5095 4.99633 21.6308 5.14583 21.6308H8.9375C9.00933 21.6308 9.07822 21.6023 9.12901 21.5515C9.1798 21.5007 9.20833 21.4318 9.20833 21.36V15.9357C9.20833 14.8881 10.0577 14.0399 11.1042 14.0399H14.8958C15.9423 14.0399 16.7917 14.8881 16.7917 15.9357V21.36C16.7917 21.5095 16.913 21.6308 17.0625 21.6308H20.8542C20.926 21.6308 20.9949 21.6023 21.0457 21.5515C21.0965 21.5007 21.125 21.4318 21.125 21.36V11.2741C21.1249 11.1558 21.0989 11.039 21.049 10.9318C20.999 10.8246 20.9262 10.7295 20.8358 10.6534L13.5233 4.48812Z" fill="currentColor"/>
</svg>
