<svg width="26" height="27" viewBox="0 0 26 27" fill="currentColor" xmlns="http://www.w3.org/2000/svg">
<path d="M17.0625 16.75C16.847 16.75 16.6403 16.8356 16.488 16.988C16.3356 17.1403 16.25 17.347 16.25 17.5625C16.25 17.778 16.3356 17.9847 16.488 18.137C16.6403 18.2894 16.847 18.375 17.0625 18.375H20.3125C20.528 18.375 20.7347 18.2894 20.887 18.137C21.0394 17.9847 21.125 17.778 21.125 17.5625C21.125 17.347 21.0394 17.1403 20.887 16.988C20.7347 16.8356 20.528 16.75 20.3125 16.75H17.0625ZM1.625 9.4375C1.625 8.36006 2.05301 7.32675 2.81488 6.56488C3.57675 5.80301 4.61006 5.375 5.6875 5.375H20.3125C21.3899 5.375 22.4233 5.80301 23.1851 6.56488C23.947 7.32675 24.375 8.36006 24.375 9.4375V17.5625C24.375 18.6399 23.947 19.6733 23.1851 20.4351C22.4233 21.197 21.3899 21.625 20.3125 21.625H5.6875C4.61006 21.625 3.57675 21.197 2.81488 20.4351C2.05301 19.6733 1.625 18.6399 1.625 17.5625V9.4375ZM22.75 10.25V9.4375C22.75 8.79103 22.4932 8.17105 22.0361 7.71393C21.579 7.25681 20.959 7 20.3125 7H5.6875C5.04103 7 4.42105 7.25681 3.96393 7.71393C3.50681 8.17105 3.25 8.79103 3.25 9.4375V10.25H22.75ZM3.25 11.875V17.5625C3.25 18.209 3.50681 18.829 3.96393 19.2861C4.42105 19.7432 5.04103 20 5.6875 20H20.3125C20.959 20 21.579 19.7432 22.0361 19.2861C22.4932 18.829 22.75 18.209 22.75 17.5625V11.875H3.25Z" fill="currentColor"/>
</svg>
