<svg width="26" height="27" viewBox="0 0 26 27" fill="none" xmlns="http://www.w3.org/2000/svg">
<path d="M20.5846 24.334V22.709M5.41797 24.334V22.709" stroke="currentColor" stroke-width="1.75781" stroke-linecap="round"/>
<path d="M2.16797 11.3327C2.16797 7.24718 2.16797 5.20442 3.43717 3.93522C4.70638 2.66602 6.74913 2.66602 10.8346 2.66602H15.168C19.2535 2.66602 21.2962 2.66602 22.5654 3.93522C23.8346 5.20442 23.8346 7.24718 23.8346 11.3327V13.4993C23.8346 17.5849 23.8346 19.6276 22.5654 20.8968C21.2962 22.166 19.2535 22.166 15.168 22.166H10.8346C6.74913 22.166 4.70638 22.166 3.43717 20.8968C2.16797 19.6276 2.16797 17.5849 2.16797 13.4993V11.3327Z" stroke="currentColor" stroke-width="1.75781"/>
<path d="M9.75 17.291H16.25" stroke="currentColor" stroke-width="1.75781" stroke-linecap="round"/>
<path d="M9.75 7.54102H16.25" stroke="currentColor" stroke-width="1.75781" stroke-linecap="round"/>
<path d="M2.16797 12.416H23.8346" stroke="currentColor" stroke-width="1.75781" stroke-linecap="round"/>
</svg>
